<?xml version="1.0" encoding="UTF-8" standalone="no"?>
<!-- Created with Inkscape (http://www.inkscape.org/) -->

<svg
   xmlns:dc="http://purl.org/dc/elements/1.1/"
   xmlns:cc="http://creativecommons.org/ns#"
   xmlns:rdf="http://www.w3.org/1999/02/22-rdf-syntax-ns#"
   xmlns:svg="http://www.w3.org/2000/svg"
   xmlns="http://www.w3.org/2000/svg"
   xmlns:sodipodi="http://sodipodi.sourceforge.net/DTD/sodipodi-0.dtd"
   xmlns:inkscape="http://www.inkscape.org/namespaces/inkscape"
   id="svg2"
   version="1.1"
   inkscape:version="0.91 r13725"
   xml:space="preserve"
   width="308.67499"
   height="204.41251"
   viewBox="0 0 308.67499 204.41251"
   sodipodi:docname="wmap_power_spectrum.svg"><metadata
     id="metadata8"><rdf:RDF><cc:Work
         rdf:about=""><dc:format>image/svg+xml</dc:format><dc:type
           rdf:resource="http://purl.org/dc/dcmitype/StillImage" /><dc:title></dc:title></cc:Work></rdf:RDF></metadata><defs
     id="defs6" /><sodipodi:namedview
     pagecolor="#ffffff"
     bordercolor="#666666"
     borderopacity="1"
     objecttolerance="10"
     gridtolerance="10"
     guidetolerance="10"
     inkscape:pageopacity="0"
     inkscape:pageshadow="2"
     inkscape:window-width="640"
     inkscape:window-height="480"
     id="namedview4"
     showgrid="false"
     inkscape:zoom="1.1545282"
     inkscape:cx="154.33749"
     inkscape:cy="102.20625"
     inkscape:window-x="65"
     inkscape:window-y="24"
     inkscape:window-maximized="0"
     inkscape:current-layer="g10" /><g
     id="g10"
     inkscape:groupmode="layer"
     inkscape:label="ink_ext_XXXXXX"
     transform="matrix(1.25,0,0,-1.25,0,204.4125)"><g
       id="g12"
       transform="scale(0.1,0.1)"><path
         d="m 339.613,231.758 2126.01,0 0,1378.25 -2126.01,0 0,-1378.25 z"
         style="fill:#ffffff;fill-opacity:1;fill-rule:nonzero;stroke:none"
         id="path14"
         inkscape:connector-curvature="0" /><path
         d="m 2319.93,509.148 c -0.13,-0.089 -0.23,-0.179 -0.34,-0.257 -12.96,-9.903 -26.36,-19.383 -38.89,-29.871 -10.36,-8.68 -28.45,-14.02 -39.98,-4.43 -20.31,16.879 -32.43,42.769 -41.29,67.301 -11.98,33.129 -24.22,66.25 -34.13,100.109 -9.6,32.809 -20.44,65.898 -33.35,97.551 -6.32,15.527 -12.79,31.328 -22.23,45.297 -5.61,8.332 -12.52,17.66 -22.61,20.691 -21.16,6.359 -37.77,-22.25 -46.56,-36.828 -17.44,-28.934 -30.76,-60.121 -48.42,-88.91 -10.08,-16.434 -27.2,-44.332 -50.38,-40.09 -25.25,4.617 -41.79,38.789 -52.87,58.578 -17.91,32 -32.4,67.32 -54.77,96.578 -15.18,19.844 -33.48,36.934 -58.34,22.524 -12.84,-7.453 -22.91,-22.743 -30.45,-35.082 -9.61,-15.75 -18.5,-31.809 -26.89,-48.231 -15.3,-29.848 -29.73,-61.808 -50.77,-88.117 -8.09,-10.113 -19.75,-22.672 -33.93,-22.262 -15.66,0.461 -28.01,16.418 -34.93,28.809 -18.87,33.722 -30.48,70.152 -41.66,106.98 -23.25,76.539 -39.48,155.551 -56.17,233.731 -18,84.441 -35.72,168.951 -55.43,253.011 -9.15,39 -19.04,77.83 -30.15,116.31 -10.82,37.49 -22.42,75.79 -39.98,110.78 -8,15.96 -17.27,33.33 -31.53,44.65 -16.27,12.91 -33.7,9.98 -48.81,-3.18 -28.03,-24.36 -44.75,-64.21 -59.1,-97.57 -32.43,-75.49 -58.25,-154.02 -84.42,-231.84 -25.34,-75.32 -51.3,-150.46 -79.01,-224.95 -28.56,-76.813 -60.66,-153.082 -100.267,-224.91 -37.168,-67.411 -82.078,-134.082 -136.957,-188.403 -27.953,-27.668 -59.523,-52.949 -91.25,-76.129 -32.871,-24.019 -71.32,-43.121 -108.113,-60.379 -7.148,-3.351 -13.859,-6.308 -21.367,-9.058 -8.133,-2.961 -17.723,-5.391 -25.723,-7.211 -5.918,-1.352 -11.07,-2.371 -16.699,-4.039 -12.891,-3.813 -25.48,-9.371 -38.93,-11.582 -25.511,-4.168 -54.058,4.039 -77.871,-8.461 -16.058,-8.418 -24.808,-28.07 -33.668,-43.149 -10.019,-17.05 -22.66,-33.058 -41.16,-41.332 l 0,270.102 c 28.52,-10.289 42.969,-32.262 61.211,-52.301 7.27,-7.988 14.707,-14.66 23.09,-21.238 8.519,-6.692 17.449,-13.039 26.457,-17.262 15.023,-7.039 30.703,-10.098 48.25,-13.07 11.773,-1.988 23.281,-3.5 34.66,-3 12.813,0.582 26.25,3.633 38.852,6.64 11.769,2.813 22.711,5.461 34.531,9.051 39.41,11.949 75.449,34.02 109.777,56.36 32.172,20.949 59.492,47.558 85.961,75.152 55.66,58.008 98.93,123.859 135.922,195.019 37.414,71.969 68.134,147.321 96.204,223.35 28.01,75.89 52.41,152.96 78.59,229.48 26.34,77.01 50.96,155.12 83.96,229.64 14.18,32.03 30.93,73.65 60.71,94.51 37.61,26.34 63.7,-25.45 76.7,-53.49 16.91,-36.45 29.06,-76.02 39.38,-114.78 10.41,-39.11 20.57,-78.22 29.46,-117.71 17.95,-79.73 34.59,-159.74 50.82,-239.83 16.45,-81.22 33.43,-162.58 54.63,-242.712 9.91,-37.54 20.51,-75.469 36.14,-111.098 9.8,-22.36 31.04,-70.582 62.87,-52 14.7,8.57 24.88,24.777 33.54,38.918 8.61,14.062 16.04,28.769 23.75,43.34 16.36,30.882 30.36,63.73 52.27,91.25 16.14,20.3 37.18,31.461 59.19,12.632 25.92,-22.16 41.02,-58.742 56.29,-88.382 13.96,-27.137 28.38,-62.168 53.43,-81.239 19.37,-14.761 37.66,-3.8 51.02,13.149 20.43,25.922 33.78,56.98 49.05,86.051 10.32,19.652 24.09,52.539 46.95,60.789 22.18,8 37.8,-22.547 45.39,-38.137 15.63,-32.094 25.52,-66.25 37.07,-99.902 10.45,-30.489 20.06,-61.532 29.54,-92.34 5.73,-18.61 13.37,-36.629 20.73,-54.621 5.09,-12.469 11.75,-27.071 20.7,-37.297 11.21,-12.821 22.62,-22.481 40.32,-16.41 14.8,5.089 27.57,18.199 39.34,28.058 3.92,3.281 8.26,6.11 12.64,8.781"
         style="fill:#c8cee9;fill-opacity:1;fill-rule:nonzero;stroke:none"
         id="path16"
         inkscape:connector-curvature="0" /><path
         d="m 2319.93,509.148 c -0.13,-0.089 -0.23,-0.179 -0.34,-0.257 -12.96,-9.903 -26.36,-19.383 -38.89,-29.871 -10.36,-8.68 -28.45,-14.02 -39.98,-4.43 -20.31,16.879 -32.43,42.769 -41.29,67.301 -11.98,33.129 -24.22,66.25 -34.13,100.109 -9.6,32.809 -20.44,65.898 -33.35,97.551 -6.32,15.527 -12.79,31.328 -22.23,45.297 -5.61,8.332 -12.52,17.66 -22.61,20.691 -21.16,6.359 -37.77,-22.25 -46.56,-36.828 -17.44,-28.934 -30.76,-60.121 -48.42,-88.91 -10.08,-16.434 -27.2,-44.332 -50.38,-40.09 -25.25,4.617 -41.79,38.789 -52.87,58.578 -17.91,32 -32.4,67.32 -54.77,96.578 -15.18,19.844 -33.48,36.934 -58.34,22.524 -12.84,-7.453 -22.91,-22.743 -30.45,-35.082 -9.61,-15.75 -18.5,-31.809 -26.89,-48.231 -15.3,-29.848 -29.73,-61.808 -50.77,-88.117 -8.09,-10.113 -19.75,-22.672 -33.93,-22.262 -15.66,0.461 -28.01,16.418 -34.93,28.809 -18.87,33.722 -30.48,70.152 -41.66,106.98 -23.25,76.539 -39.48,155.551 -56.17,233.731 -18,84.441 -35.72,168.951 -55.43,253.011 -9.15,39 -19.04,77.83 -30.15,116.31 -10.82,37.49 -22.42,75.79 -39.98,110.78 -8,15.96 -17.27,33.33 -31.53,44.65 -16.27,12.91 -33.7,9.98 -48.81,-3.18 -28.03,-24.36 -44.75,-64.21 -59.1,-97.57 -32.43,-75.49 -58.25,-154.02 -84.42,-231.84 -25.34,-75.32 -51.3,-150.46 -79.01,-224.95 -28.56,-76.813 -60.66,-153.082 -100.267,-224.91 -37.168,-67.411 -82.078,-134.082 -136.957,-188.403 -27.953,-27.668 -59.523,-52.949 -91.25,-76.129 -32.871,-24.019 -71.32,-43.121 -108.113,-60.379 -7.148,-3.351 -13.859,-6.308 -21.367,-9.058 -8.133,-2.961 -17.723,-5.391 -25.723,-7.211 -5.918,-1.352 -11.07,-2.371 -16.699,-4.039 -12.891,-3.813 -25.48,-9.371 -38.93,-11.582 -25.511,-4.168 -54.058,4.039 -77.871,-8.461 -16.058,-8.418 -24.808,-28.07 -33.668,-43.149 -10.019,-17.05 -22.66,-33.058 -41.16,-41.332 l 0,270.102 c 28.52,-10.289 42.969,-32.262 61.211,-52.301 7.27,-7.988 14.707,-14.66 23.09,-21.238 8.519,-6.692 17.449,-13.039 26.457,-17.262 15.023,-7.039 30.703,-10.098 48.25,-13.07 11.773,-1.988 23.281,-3.5 34.66,-3 12.813,0.582 26.25,3.633 38.852,6.64 11.769,2.813 22.711,5.461 34.531,9.051 39.41,11.949 75.449,34.02 109.777,56.36 32.172,20.949 59.492,47.558 85.961,75.152 55.66,58.008 98.93,123.859 135.922,195.019 37.414,71.969 68.134,147.321 96.204,223.35 28.01,75.89 52.41,152.96 78.59,229.48 26.34,77.01 50.96,155.12 83.96,229.64 14.18,32.03 30.93,73.65 60.71,94.51 37.61,26.34 63.7,-25.45 76.7,-53.49 16.91,-36.45 29.06,-76.02 39.38,-114.78 10.41,-39.11 20.57,-78.22 29.46,-117.71 17.95,-79.73 34.59,-159.74 50.82,-239.83 16.45,-81.22 33.43,-162.58 54.63,-242.712 9.91,-37.54 20.51,-75.469 36.14,-111.098 9.8,-22.36 31.04,-70.582 62.87,-52 14.7,8.57 24.88,24.777 33.54,38.918 8.61,14.062 16.04,28.769 23.75,43.34 16.36,30.882 30.36,63.73 52.27,91.25 16.14,20.3 37.18,31.461 59.19,12.632 25.92,-22.16 41.02,-58.742 56.29,-88.382 13.96,-27.137 28.38,-62.168 53.43,-81.239 19.37,-14.761 37.66,-3.8 51.02,13.149 20.43,25.922 33.78,56.98 49.05,86.051 10.32,19.652 24.09,52.539 46.95,60.789 22.18,8 37.8,-22.547 45.39,-38.137 15.63,-32.094 25.52,-66.25 37.07,-99.902 10.45,-30.489 20.06,-61.532 29.54,-92.34 5.73,-18.61 13.37,-36.629 20.73,-54.621 5.09,-12.469 11.75,-27.071 20.7,-37.297 11.21,-12.821 22.62,-22.481 40.32,-16.41 14.8,5.089 27.57,18.199 39.34,28.058 3.92,3.281 8.26,6.11 12.64,8.781"
         style="fill:none;stroke:#c8cee9;stroke-width:5.03999996;stroke-linecap:butt;stroke-linejoin:miter;stroke-miterlimit:2.5;stroke-dasharray:none;stroke-opacity:1"
         id="path18"
         inkscape:connector-curvature="0" /><path
         d="m 380.535,486.367 c 37.899,-19.219 72.418,-48.84 113.91,-59.457 40.879,-10.461 85.391,-7.75 125.418,5.649 77.012,25.761 145.871,68.718 204.41,124.968 56.653,54.453 102.09,118.243 140.622,186.481 40.105,71.051 73.015,146.91 101.315,223.383 27.9,75.419 53.61,151.479 79.68,227.529 26.52,77.36 52.24,154.85 82.47,230.87 13.98,35.19 30.3,73.8 55.16,102.82 10.57,12.32 26.71,27.88 44.59,21.96 17.71,-5.86 28.84,-22.73 37.84,-38.08 19.59,-33.47 31.07,-71.7 42.52,-108.51 12.12,-38.87 22.1,-78.59 31.39,-118.22 19.75,-84.26 37.71,-168.94 55.09,-253.72 16.43,-80.212 32.89,-161.071 54.91,-239.962 10.43,-37.379 21.03,-74.789 36.66,-110.39 10.05,-22.879 32.25,-68.7 63.64,-48.489 14.5,9.34 24.73,25.781 33.43,40.231 8.39,13.918 15.95,28.379 23.38,42.82 15.6,30.301 29.98,62.238 51.3,89.039 16.02,20.16 37.32,31.52 59.19,12.75 25.88,-22.211 40.79,-58.039 56.29,-87.601 14.16,-27.008 28.41,-61.54 53.43,-80.579 19.29,-14.691 37.7,-3.601 51,13.149 20.37,25.652 32.5,56.301 48.55,84.609 11.66,20.571 23.61,51.293 47.02,61.371 21.66,9.34 37.96,-22.168 45.38,-36.898 16.3,-32.34 26.28,-67.211 37.98,-101.34 10.46,-30.539 19.75,-61.582 29.69,-92.289 9.99,-30.762 21.68,-64.551 41.68,-90.402 11.15,-14.399 23.15,-19.329 40.32,-14.579 14.45,4 27.95,19.25 39.27,28.438 10.72,8.691 24.09,16.77 38.41,14.52 15.61,-2.45 27.61,-15.54 37.23,-27.079 22.99,-27.558 39.42,-67.75 71.54,-86.171 3.34,-1.911 6.7,-3.438 10.38,-4.559"
         style="fill:none;stroke:#e60033;stroke-width:8;stroke-linecap:butt;stroke-linejoin:miter;stroke-miterlimit:2.5;stroke-dasharray:none;stroke-opacity:1"
         id="path20"
         inkscape:connector-curvature="0" /><path
         d="m 2345.68,585.301 25,0 m -25,-203.203 25,0 m -12.52,0 0,203.203 m -89.16,-62.492 24.98,0 M 2269,409.438 l 24.98,0 m -12.52,0 0,113.371 m -72.96,58.058 25.11,0 m -25.11,-104.777 25.11,0 m -12.63,0 0,104.777 m -54.3,115.852 24.98,0 m -24.98,-81.36 24.98,0 m -12.52,0 0,81.36 m -55.75,59.621 25.13,0 m -25.13,-63.52 25.13,0 m -12.48,0 0,63.52 m -57.36,102.969 25.14,0 m -25.14,-49.211 25.14,0 m -12.64,0 0,49.203 m -58.93,-64.813 25.11,0 m -25.11,-37.5 25.11,0 m -12.5,0 0,37.492 m -60.75,-87.601 25,0 m -25,-27.859 25,0 m -12.52,0 0,27.859 m -62.73,-67.039 25,0 m -25,-20.961 25,0 m -12.5,0 0,20.961 m -65.11,62.09 25.11,0 m -25.11,-16.789 25.11,0 m -12.61,0 0,16.789 m -67.59,101.398 25,0 m -25,-14.058 25,0 m -12.5,0 0,14.058 m -69.46,13.16 25.12,0 m -25.12,-11.988 25.12,0 m -12.5,0 0,11.98 m -70.23,-52.203 25,0 m -25,-9.629 25,0 m -12.5,0 0,9.629 m -68.91,-109.207 24.98,0 m -24.98,-7.941 24.98,0 m -12.5,0 0,7.941 m -65.37,-12.5 25,0 m -25,-7.16 25,0 m -12.5,0 0,7.16 m -61.82,110.399 25.12,0 m -25.12,-7.442 25.12,0 m -12.62,0 0,7.434 m -60,179.887 25.14,0 m -25.14,-7.809 25.14,0 m -12.5,0 0,7.809 m -58.54,202.672 25.02,0 m -25.02,-8.44 25.02,0 m -12.52,0 0,8.45 m -56.82,222.07 25.13,0 m -25.13,-8.86 25.13,0 m -12.65,0 0,8.86 m -56.55,113.12 25.12,0 m -25.12,-8.73 25.12,0 m -12.62,0 0,8.73 m -55.25,86.43 24.98,0 m -24.98,-8.84 24.98,0 m -12.48,0 0,8.85 m -53.8,-11.85 25.12,0 m -25.12,-8.47 25.12,0 m -12.48,0 0,8.46 m -54.05,-54.15 24.96,0 m -24.96,-7.93 24.96,0 m -12.48,0 0,7.94 m -54.34,-104.92 25.14,0 m -25.14,-7.3 25.14,0 m -12.62,0 0,7.29 m -53.27,-110.38 25,0 m -25,-6.9 25,0 m -12.48,0 0,6.9 m -52.24,-78.24 25.13,0 m -25.13,-6.37 25.13,0 m -12.63,0 0,6.37 m -53.39,-160.87 24.98,0 m -24.98,-5.48 24.98,0 m -12.5,0 0,5.47 m -53.53,-75.89 25.12,0 m -25.12,-5.211 25.12,0 m -12.61,0 0,5.211 m -51.83,-125.871 25.12,0 m -25.12,-4.692 25.12,0 m -12.62,0 0,4.684 m -51.427,-63.902 25.121,0 m -25.121,-4.301 25.121,0 m -12.5,0 0,4.293 m -52.75,-89.434 25.012,0 m -25.012,-3.769 25.012,0 m -12.5,0 0,3.769 m -54.332,-36.84 24.98,0 m -24.98,-3.519 24.98,0 m -12.48,0 0,3.519 m -51.688,-61.168 24.977,0 m -24.977,-3.519 24.977,0 m -12.477,0 0,3.519 M 803.926,537 l 25.117,0 m -25.117,-3.121 25.117,0 m -12.5,0 0,3.121 m -54.707,22.008 25.109,0 m -25.109,-2.738 25.109,0 m -12.492,0 0,2.738 m -53.66,-74.199 24.992,0 m -24.992,-2.86 24.992,0 m -12.492,0 0,2.86 m -52.09,-26.418 24.992,0 m -24.992,-2.614 24.992,0 m -12.5,0 0,2.614 m -53.66,-59.621 25,0 m -25,-2.61 25,0 m -12.5,0 0,2.61 m -51.18,26.418 25.129,0 m -25.129,-2.86 25.129,0 m -12.488,0 0,2.86 m -52.223,10.929 24.993,0 m -24.993,-2.597 24.993,0 m -12.493,0 0,2.597 m -53.527,-11.707 24.977,0 m -24.977,-3 24.977,0 m -12.489,0 0,3 m -55.25,5.207 24.989,0 m -24.989,-2.867 24.989,0 m -12.489,0 0,2.867 m -57.738,56.363 25.109,0 m -25.109,-3.39 25.109,0 m -12.609,0 0,3.39 m -47.48,-44.792 25.109,0 m -25.109,-4.411 25.109,0 m -12.621,0 0,4.411 m -42.219,-172.848 24.988,0 m -24.988,-3.91 24.988,0 m -12.488,0 0,3.91 m 1977.625,222.578 7.25,-7.289 -7.25,-7.149 -7.34,7.149 7.34,7.289 m -76.7,-17.559 7.27,-7.171 -7.27,-7.29 -7.32,7.29 7.32,7.171 m -60.48,62.352 7.36,-7.16 -7.36,-7.293 -7.21,7.293 7.21,7.16 m -41.84,127.559 7.38,-7.161 -7.38,-7.289 -7.21,7.289 7.21,7.161 m -43.1,68.609 7.21,-7.289 -7.21,-7.16 -7.38,7.16 7.38,7.289 m -44.86,109.98 7.36,-7.16 -7.36,-7.289 -7.25,7.289 7.25,7.16 m -46.32,-58.961 7.27,-7.16 -7.27,-7.289 -7.36,7.289 7.36,7.16 m -48.27,-82.66 7.25,-7.289 -7.25,-7.16 -7.36,7.16 7.36,7.289 m -50.23,-63.66 7.23,-7.277 -7.23,-7.16 -7.34,7.16 7.34,7.277 m -52.61,64.18 7.34,-7.16 -7.34,-7.289 -7.25,7.289 7.25,7.16 m -55.09,102.711 7.34,-7.149 -7.34,-7.3 -7.25,7.3 7.25,7.149 m -56.84,14.179 7.22,-7.16 -7.22,-7.277 -7.35,7.277 7.35,7.16 m -57.73,-51.019 7.36,-7.16 -7.36,-7.289 -7.27,7.289 7.27,7.16 m -56.43,-108.309 7.38,-7.293 -7.38,-7.16 -7.25,7.16 7.25,7.293 m -52.87,-12.109 7.35,-7.16 -7.35,-7.281 -7.24,7.281 7.24,7.16 m -49.32,110.258 7.35,-7.289 -7.35,-7.16 -7.27,7.16 7.27,7.289 m -47.36,179.769 7.25,-7.289 -7.25,-7.16 -7.36,7.16 7.36,7.289 m -46.04,202.282 7.25,-7.16 -7.25,-7.29 -7.37,7.29 7.37,7.16 m -44.34,221.95 7.38,-7.29 -7.38,-7.16 -7.23,7.16 7.23,7.29 m -44.05,113.11 7.39,-7.29 -7.39,-7.17 -7.23,7.17 7.23,7.29 m -42.75,86.3 7.39,-7.16 -7.39,-7.29 -7.23,7.29 7.23,7.16 m -41.16,-11.57 7.25,-7.17 -7.25,-7.29 -7.36,7.29 7.36,7.17 m -41.57,-53.89 7.39,-7.29 -7.39,-7.16 -7.23,7.16 7.23,7.29 m -41.82,-104.67 7.39,-7.16 -7.39,-7.29 -7.24,7.29 7.24,7.16 m -40.75,-110.12 7.21,-7.16 -7.21,-7.3 -7.38,7.3 7.38,7.16 m -39.74,-77.96 7.36,-7.17 -7.36,-7.29 -7.23,7.29 7.23,7.17 m -40.91,-160.38 7.23,-7.3 -7.23,-7.15 -7.37,7.15 7.37,7.3 m -41.02,-75.77 7.36,-7.29 -7.36,-7.16 -7.24,7.16 7.24,7.29 m -39.33,-125.743 7.35,-7.16 -7.35,-7.297 -7.25,7.297 7.25,7.16 m -38.806,-63.648 7.242,-7.149 -7.242,-7.292 -7.371,7.292 7.371,7.149 m -40.238,-89.168 7.23,-7.16 -7.23,-7.293 -7.383,7.293 7.383,7.16 m -41.832,-36.703 7.242,-7.297 -7.242,-7.152 -7.359,7.152 7.359,7.297 m -39.188,-61.188 7.348,-7.16 -7.348,-7.281 -7.25,7.281 7.25,7.16 m -38.023,-46.34 7.23,-7.281 -7.23,-7.172 -7.367,7.172 7.367,7.281 m -42.09,22.129 7.231,-7.289 -7.231,-7.152 -7.359,7.152 7.359,7.289 m -41.16,-74.332 7.223,-7.148 -7.223,-7.289 -7.379,7.289 7.379,7.148 m -39.598,-26.16 7.239,-7.289 -7.239,-7.16 -7.359,7.16 7.359,7.289 m -41.16,-59.75 7.219,-7.148 -7.219,-7.301 -7.371,7.301 7.371,7.148 m -38.539,26.301 7.227,-7.16 -7.227,-7.289 -7.371,7.289 7.371,7.16 m -39.723,11.062 7.243,-7.16 -7.243,-7.293 -7.359,7.293 7.359,7.16 m -41.039,-11.851 7.371,-7.281 -7.371,-7.168 -7.238,7.168 7.238,7.281 m -42.75,5.351 7.25,-7.3 -7.25,-7.153 -7.371,7.153 7.371,7.3 m -45.238,55.969 7.359,-7.172 -7.359,-7.277 -7.242,7.277 7.242,7.172 m -34.992,-45.179 7.359,-7.282 -7.359,-7.16 -7.238,7.16 7.238,7.282 m -29.719,-172.719 7.36,-7.172 -7.36,-7.289 -7.242,7.289 7.242,7.172"
         style="fill:none;stroke:#221f20;stroke-width:4;stroke-linecap:butt;stroke-linejoin:miter;stroke-miterlimit:2.5;stroke-dasharray:none;stroke-opacity:1"
         id="path22"
         inkscape:connector-curvature="0" /><path
         d="m 2465.63,1495.18 -21.29,0 m 21.29,-114.93 -35.27,0 m 35.27,-114.82 -21.29,0 m 21.29,-229.75 -21.29,0 m 21.29,-114.801 -35.27,0 m 35.27,-114.809 -21.29,0 m 21.29,-229.75 -21.29,0 m 21.29,-114.812 -35.27,0 m 35.27,-114.93 -21.29,0 m 21.29,804.052 -35.27,0 m 35.27,-459.501 -35.27,0 m -2090.747,804.051 21.321,0 m -21.321,-114.93 35.282,0 m -35.282,-114.82 21.321,0 m -21.321,-229.75 21.321,0 m -21.321,-114.801 35.282,0 m -35.282,-114.809 21.321,0 m -21.321,-229.75 21.321,0 m -21.321,-114.812 35.282,0 m -35.282,-114.93 21.321,0 m -21.321,804.052 35.282,0 m -35.282,-459.501 35.282,0 m 2019.715,918.861 0,-20.41 m -74.7,20.41 0,-20.41 m -78.8,20.41 0,-34.79 m -83.77,34.79 0,-20.41 m -89.57,20.41 0,-20.41 m -96.54,20.41 0,-20.41 m -105.23,20.41 0,-20.41 m -116.41,20.41 0,-34.79 m -131.27,34.79 0,-20.41 m -152.94,20.41 0,-20.41 m -187.7,20.41 0,-20.41 m -258.18,20.41 0,-34.79 m -33.285,34.79 0,-20.41 m -35.649,20.41 0,-20.41 m -38.41,20.41 0,-20.41 m -41.953,20.41 0,-20.41 m -46.297,20.41 0,-20.41 m -52.34,20.41 0,-20.41 m -60.773,20.41 0,-20.41 m -74.84,20.41 0,-20.41 m -102.719,20.41 0,-34.79 m -13.289,34.79 0,-20.41 m -14.199,20.41 0,-20.41 m -15.262,20.41 0,-20.41 m -16.699,20.41 0,-20.41 m -18.422,20.41 0,-20.41 m -20.777,20.41 0,-20.41 m -24.34,20.41 0,-20.41 m -29.711,20.41 0,-20.41 M 2394.61,231.758 l 0,20.402 m -74.7,-20.402 0,20.402 m -78.8,-20.402 0,34.801 m -83.77,-34.801 0,20.402 m -89.57,-20.402 0,20.402 m -96.54,-20.402 0,20.402 M 1866,231.758 l 0,20.402 m -116.41,-20.402 0,34.801 m -131.27,-34.801 0,20.402 m -152.94,-20.402 0,20.402 m -187.7,-20.402 0,20.402 m -258.18,-20.402 0,34.801 m -33.285,-34.801 0,20.402 m -35.649,-20.402 0,20.402 m -38.41,-20.402 0,20.402 m -41.953,-20.402 0,20.402 m -46.297,-20.402 0,20.402 m -52.34,-20.402 0,20.402 m -60.773,-20.402 0,20.402 m -74.84,-20.402 0,20.402 m -102.719,-20.402 0,34.801 m -13.289,-34.801 0,20.402 m -14.199,-20.402 0,20.402 m -15.262,-20.402 0,20.402 m -16.699,-20.402 0,20.402 m -18.422,-20.402 0,20.402 m -20.777,-20.402 0,20.402 m -24.34,-20.402 0,20.402 m -29.711,-20.402 0,20.402"
         style="fill:none;stroke:#221f20;stroke-width:7.5;stroke-linecap:butt;stroke-linejoin:miter;stroke-miterlimit:2.5;stroke-dasharray:none;stroke-opacity:1"
         id="path24"
         inkscape:connector-curvature="0" /><path
         d="m 1035.32,21.1875 0,42.3711 c 0,2.1016 0.2,11.1992 0.2,17.8906 l -0.2,0 -20.19,-60.2617 -9.61,0 -20.184,60.1719 -0.203,0 c 0,-6.6016 0.203,-15.6992 0.203,-17.8008 l 0,-42.3711 -9.391,0 0,71.7617 13.891,0 20.484,-60.6719 0.2,0 20.39,60.6719 13.79,0 0,-71.7617"
         style="fill:#221f20;fill-opacity:1;fill-rule:nonzero;stroke:none"
         id="path26"
         inkscape:connector-curvature="0" /><path
         d="m 1092.52,21.1875 0,7.6016 -0.2,0.1914 c -3.69,-6.0899 -8.19,-9.293 -16.59,-9.293 -7.69,0 -16.98,3.7031 -16.98,16.1914 l 0,37.5899 8.79,0 0,-34.6915 c 0,-8.5976 4.39,-11.5 10.09,-11.5 11.1,0 14.39,9.8008 14.39,17.4024 l 0,28.7891 8.8,0 0,-52.2813"
         style="fill:#221f20;fill-opacity:1;fill-rule:nonzero;stroke:none"
         id="path28"
         inkscape:connector-curvature="0" /><path
         d="m 1114.25,21.1875 8.7969,0 0,71.7617 -8.7969,0 0,-71.7617 z"
         style="fill:#221f20;fill-opacity:1;fill-rule:nonzero;stroke:none"
         id="path30"
         inkscape:connector-curvature="0" /><path
         d="m 1147.04,66.1602 0,-33.9727 c 0,-4.1094 3.5,-4.1094 5.3,-4.1094 l 3.09,0 0,-6.8906 c -3.18,-0.2969 -5.68,-0.6992 -6.59,-0.6992 -8.68,0 -10.59,4.9023 -10.59,11.1992 l 0,34.4727 -7.09,0 0,7.3007 7.09,0 0,14.5899 8.79,0 0,-14.5899 8.39,0 0,-7.3007"
         style="fill:#221f20;fill-opacity:1;fill-rule:nonzero;stroke:none"
         id="path32"
         inkscape:connector-curvature="0" /><path
         d="m 1173.04,21.1875 -8.79,0 0,52.2813 8.79,0 0,-52.2813 z m -8.79,71.7617 8.79,0 0,-9.9883 -8.79,0"
         style="fill:#221f20;fill-opacity:1;fill-rule:nonzero;stroke:none"
         id="path34"
         inkscape:connector-curvature="0" /><path
         d="m 1208.25,27.2891 c 9.59,0 14.09,8.6992 14.09,20.1992 0,6.6797 -0.71,19.5898 -14.3,19.5898 -12.68,0 -14.09,-13.7109 -14.09,-22.1875 0,-13.9023 8.69,-17.6015 14.3,-17.6015 m -22.71,46.1797 8.32,0 0,-7.3985 0.19,0 c 2.09,3 6.09,8.8985 15.59,8.8985 13.9,0 21.79,-11.3985 21.79,-26.0899 0,-12.4883 -5.2,-29.1914 -22.98,-29.1914 -7,0 -11.61,3.3008 -13.9,7 l -0.21,0 0,-26.1875 -8.8,0"
         style="fill:#221f20;fill-opacity:1;fill-rule:nonzero;stroke:none"
         id="path36"
         inkscape:connector-curvature="0" /><path
         d="m 1263.13,27.3906 c 12.6,0 15.21,12.9883 15.21,19.9766 0,7 -2.61,19.9922 -15.21,19.9922 -12.59,0 -15.18,-12.9922 -15.18,-19.9922 0,-6.9883 2.59,-19.9766 15.18,-19.9766 m 0,47.5703 c 16.69,0 24.3,-14.0937 24.3,-27.5937 0,-13.4883 -7.61,-27.5781 -24.3,-27.5781 -16.68,0 -24.29,14.0898 -24.29,27.5781 0,13.5 7.61,27.5937 24.29,27.5937"
         style="fill:#221f20;fill-opacity:1;fill-rule:nonzero;stroke:none"
         id="path38"
         inkscape:connector-curvature="0" /><path
         d="m 1297.66,21.1875 8.7891,0 0,71.7617 -8.7891,0 0,-71.7617 z"
         style="fill:#221f20;fill-opacity:1;fill-rule:nonzero;stroke:none"
         id="path40"
         inkscape:connector-curvature="0" /><path
         d="m 1355.63,51.4805 c -0.5,8.0976 -3.91,15.5976 -14.59,15.5976 -8.11,0 -14.5,-7.5 -14.5,-15.5976 l 29.09,0 z m 8.39,-13.9024 c -0.29,-2.4883 -2.7,-9.8906 -9.3,-14.2773 -2.38,-1.6133 -5.79,-3.6133 -14.18,-3.6133 -14.7,0 -23.4,11.1016 -23.4,26.1914 0,16.1992 7.81,29.0899 25.09,29.0899 15.11,0 22.49,-12 22.49,-30.4805 l -38.18,0 c 0,-10.8985 5.1,-17.1992 15.19,-17.1992 8.29,0 13.2,6.3984 13.5,10.289"
         style="fill:#221f20;fill-opacity:1;fill-rule:nonzero;stroke:none"
         id="path42"
         inkscape:connector-curvature="0" /><path
         d="m 1403.04,73.4688 8.3,0 0,-7.3985 0.2,0 c 1.91,2.7969 6.39,8.8906 15.8,8.8906 9.38,0 12.38,-5.6914 13.88,-8.4921 4.41,4.8984 7.89,8.4921 15.99,8.4921 5.61,0 16.2,-2.9023 16.2,-17.582 l 0,-36.1914 -8.8,0 0,33.7813 c 0,7.1992 -2.2,12.1015 -9.7,12.1015 -7.39,0 -12.28,-7 -12.28,-13.9922 l 0,-31.8906 -8.81,0 0,36.1914 c 0,4.3906 -1.69,9.6914 -8.19,9.6914 -5,0 -13.79,-3.2031 -13.79,-17.3906 l 0,-28.4922 -8.8,0"
         style="fill:#221f20;fill-opacity:1;fill-rule:nonzero;stroke:none"
         id="path44"
         inkscape:connector-curvature="0" /><path
         d="m 1507.63,27.3906 c 12.6,0 15.21,12.9883 15.21,19.9766 0,7 -2.61,19.9922 -15.21,19.9922 -12.59,0 -15.18,-12.9922 -15.18,-19.9922 0,-6.9883 2.59,-19.9766 15.18,-19.9766 m 0,47.5703 c 16.69,0 24.3,-14.0937 24.3,-27.5937 0,-13.4883 -7.61,-27.5781 -24.3,-27.5781 -16.68,0 -24.29,14.0898 -24.29,27.5781 0,13.5 7.61,27.5937 24.29,27.5937"
         style="fill:#221f20;fill-opacity:1;fill-rule:nonzero;stroke:none"
         id="path46"
         inkscape:connector-curvature="0" /><path
         d="m 1541.95,73.4688 8.3,0 0,-7.3985 0.2,0 c 1.89,2.7969 6.39,8.8906 15.78,8.8906 9.4,0 12.4,-5.6914 13.9,-8.4921 4.39,4.8984 7.89,8.4921 15.98,8.4921 5.6,0 16.19,-2.9023 16.19,-17.582 l 0,-36.1914 -8.78,0 0,33.7813 c 0,7.1992 -2.2,12.1015 -9.7,12.1015 -7.39,0 -12.3,-7 -12.3,-13.9922 l 0,-31.8906 -8.8,0 0,36.1914 c 0,4.3906 -1.7,9.6914 -8.18,9.6914 -5,0 -13.79,-3.2031 -13.79,-17.3906 l 0,-28.4922 -8.8,0"
         style="fill:#221f20;fill-opacity:1;fill-rule:nonzero;stroke:none"
         id="path48"
         inkscape:connector-curvature="0" /><path
         d="m 1661.23,51.4805 c -0.51,8.0976 -3.91,15.5976 -14.6,15.5976 -8.09,0 -14.49,-7.5 -14.49,-15.5976 l 29.09,0 z m 8.4,-13.9024 c -0.29,-2.4883 -2.7,-9.8906 -9.29,-14.2773 -2.41,-1.6133 -5.8,-3.6133 -14.21,-3.6133 -14.68,0 -23.38,11.1016 -23.38,26.1914 0,16.1992 7.8,29.0899 25.09,29.0899 15.09,0 22.48,-12 22.48,-30.4805 l -38.18,0 c 0,-10.8985 5.11,-17.1992 15.2,-17.1992 8.29,0 13.2,6.3984 13.5,10.289"
         style="fill:#221f20;fill-opacity:1;fill-rule:nonzero;stroke:none"
         id="path50"
         inkscape:connector-curvature="0" /><path
         d="m 1723.41,21.1875 -8.8,0 0,32.1797 c 0,9.1016 -2.59,13.7031 -11.18,13.7031 -5,0 -13.8,-3.2031 -13.8,-17.3906 l 0,-28.4922 -8.79,0 0,52.2813 8.29,0 0,-7.4102 0.21,0 c 1.89,2.8086 6.79,8.9023 15.79,8.9023 8.08,0 18.28,-3.3007 18.28,-18.1914"
         style="fill:#221f20;fill-opacity:1;fill-rule:nonzero;stroke:none"
         id="path52"
         inkscape:connector-curvature="0" /><path
         d="m 1747.25,66.1602 0,-33.9727 c 0,-4.1094 3.5,-4.1094 5.29,-4.1094 l 3.09,0 0,-6.8906 c -3.18,-0.2969 -5.68,-0.6992 -6.59,-0.6992 -8.7,0 -10.59,4.9023 -10.59,11.1992 l 0,34.4727 -7.11,0 0,7.3007 7.11,0 0,14.5899 8.8,0 0,-14.5899 8.38,0 0,-7.3007"
         style="fill:#221f20;fill-opacity:1;fill-rule:nonzero;stroke:none"
         id="path54"
         inkscape:connector-curvature="0" /><path
         d="m 1837.13,33.8906 c -4.4,-6.7031 -8.79,-13.5898 -16.79,-13.5898 -6.8,0 -6.8,5.289 -6.8,6.6992 0,5.9883 14.21,50.7695 14.21,55.4609 0,3.0977 -3.32,3.0977 -6.3,2.8868 l 0,2.7109 c 7.98,0.6914 12.98,1.4922 20.89,3 l -14.5,-52.2813 c -0.59,-2.1875 -2.2,-8 -2.2,-9.9882 0,-1.3008 1.4,-1.5 1.49,-1.5 2.41,0 5.8,5 7.8,8"
         style="fill:#221f20;fill-opacity:1;fill-rule:nonzero;stroke:none"
         id="path56"
         inkscape:connector-curvature="0" /><path
         d="m 522.145,138.301 -7.52,0 0,39.898 -13.109,0 0,5.61 c 9.117,0.621 12.867,1.5 15.109,10.699 l 5.52,0"
         style="fill:#221f20;fill-opacity:1;fill-rule:nonzero;stroke:none"
         id="path58"
         inkscape:connector-curvature="0" /><path
         d="m 560.145,188.199 c -8.079,0 -11.75,-8.48 -11.75,-22.558 0,-14.063 3.671,-22.543 11.75,-22.543 8.078,0 11.75,8.48 11.75,22.543 0,14.078 -3.672,22.558 -11.75,22.558 m 0,-51.429 c -16.149,0 -19.27,17.21 -19.27,28.871 0,11.679 3.121,28.867 19.27,28.867 16.148,0 19.269,-17.188 19.269,-28.867 0,-11.661 -3.121,-28.871 -19.269,-28.871"
         style="fill:#221f20;fill-opacity:1;fill-rule:nonzero;stroke:none"
         id="path60"
         inkscape:connector-curvature="0" /><path
         d="m 984.363,138.301 -7.519,0 0,39.898 -13.11,0 0,5.61 c 9.121,0.621 12.871,1.5 15.11,10.699 l 5.519,0"
         style="fill:#221f20;fill-opacity:1;fill-rule:nonzero;stroke:none"
         id="path62"
         inkscape:connector-curvature="0" /><path
         d="m 1022.36,188.199 c -8.07,0 -11.75,-8.48 -11.75,-22.558 0,-14.063 3.68,-22.543 11.75,-22.543 8.09,0 11.75,8.48 11.75,22.543 0,14.078 -3.66,22.558 -11.75,22.558 m 0,-51.429 c -16.15,0 -19.27,17.21 -19.27,28.871 0,11.679 3.12,28.867 19.27,28.867 16.16,0 19.27,-17.188 19.27,-28.867 0,-11.661 -3.11,-28.871 -19.27,-28.871"
         style="fill:#221f20;fill-opacity:1;fill-rule:nonzero;stroke:none"
         id="path64"
         inkscape:connector-curvature="0" /><path
         d="m 1066.84,188.199 c -8.07,0 -11.75,-8.48 -11.75,-22.558 0,-14.063 3.68,-22.543 11.75,-22.543 8.09,0 11.75,8.48 11.75,22.543 0,14.078 -3.66,22.558 -11.75,22.558 m 0,-51.429 c -16.14,0 -19.27,17.21 -19.27,28.871 0,11.679 3.13,28.867 19.27,28.867 16.16,0 19.27,-17.188 19.27,-28.867 0,-11.661 -3.11,-28.871 -19.27,-28.871"
         style="fill:#221f20;fill-opacity:1;fill-rule:nonzero;stroke:none"
         id="path66"
         inkscape:connector-curvature="0" /><path
         d="m 1700.39,171.02 c 2.4,1.839 5.83,3.519 10.88,3.519 9.11,0 18.46,-6.41 18.46,-17.988 0,-6.25 -2.8,-19.774 -20.37,-19.774 -7.38,0 -16.81,2.973 -18.16,15.532 l 7.27,0 c 0.73,-6.559 5.6,-9.43 11.91,-9.43 7.28,0 11.84,5.82 11.84,12.871 0,8.059 -5.52,12.461 -12.47,12.461 -4.09,0 -7.77,-1.922 -10.39,-5.352 l -6.09,0.309 4.25,30.152 29.09,0 0,-6.871 -23.82,0"
         style="fill:#221f20;fill-opacity:1;fill-rule:nonzero;stroke:none"
         id="path68"
         inkscape:connector-curvature="0" /><path
         d="m 1755.34,188.199 c -8.07,0 -11.75,-8.48 -11.75,-22.558 0,-14.063 3.68,-22.543 11.75,-22.543 8.09,0 11.77,8.48 11.77,22.543 0,14.078 -3.68,22.558 -11.77,22.558 m 0,-51.429 c -16.14,0 -19.27,17.21 -19.27,28.871 0,11.679 3.13,28.867 19.27,28.867 16.16,0 19.27,-17.188 19.27,-28.867 0,-11.661 -3.11,-28.871 -19.27,-28.871"
         style="fill:#221f20;fill-opacity:1;fill-rule:nonzero;stroke:none"
         id="path70"
         inkscape:connector-curvature="0" /><path
         d="m 1799.82,188.199 c -8.09,0 -11.75,-8.48 -11.75,-22.558 0,-14.063 3.66,-22.543 11.75,-22.543 8.07,0 11.75,8.48 11.75,22.543 0,14.078 -3.68,22.558 -11.75,22.558 m 0,-51.429 c -16.16,0 -19.28,17.21 -19.28,28.871 0,11.679 3.12,28.867 19.28,28.867 16.14,0 19.27,-17.188 19.27,-28.867 0,-11.661 -3.13,-28.871 -19.27,-28.871"
         style="fill:#221f20;fill-opacity:1;fill-rule:nonzero;stroke:none"
         id="path72"
         inkscape:connector-curvature="0" /><path
         d="m 2180.16,138.301 -7.5,0 0,39.898 -13.12,0 0,5.61 c 9.12,0.621 12.87,1.5 15.1,10.699 l 5.52,0"
         style="fill:#221f20;fill-opacity:1;fill-rule:nonzero;stroke:none"
         id="path74"
         inkscape:connector-curvature="0" /><path
         d="m 2218.18,188.199 c -8.09,0 -11.75,-8.48 -11.75,-22.558 0,-14.063 3.66,-22.543 11.75,-22.543 8.07,0 11.75,8.48 11.75,22.543 0,14.078 -3.68,22.558 -11.75,22.558 m 0,-51.429 c -16.16,0 -19.27,17.21 -19.27,28.871 0,11.679 3.11,28.867 19.27,28.867 16.14,0 19.27,-17.188 19.27,-28.867 0,-11.661 -3.13,-28.871 -19.27,-28.871"
         style="fill:#221f20;fill-opacity:1;fill-rule:nonzero;stroke:none"
         id="path76"
         inkscape:connector-curvature="0" /><path
         d="m 2262.66,188.199 c -8.09,0 -11.75,-8.48 -11.75,-22.558 0,-14.063 3.66,-22.543 11.75,-22.543 8.07,0 11.75,8.48 11.75,22.543 0,14.078 -3.68,22.558 -11.75,22.558 m 0,-51.429 c -16.16,0 -19.28,17.21 -19.28,28.871 0,11.679 3.12,28.867 19.28,28.867 16.14,0 19.27,-17.188 19.27,-28.867 0,-11.661 -3.13,-28.871 -19.27,-28.871"
         style="fill:#221f20;fill-opacity:1;fill-rule:nonzero;stroke:none"
         id="path78"
         inkscape:connector-curvature="0" /><path
         d="m 2307.13,188.199 c -8.09,0 -11.75,-8.48 -11.75,-22.558 0,-14.063 3.66,-22.543 11.75,-22.543 8.07,0 11.75,8.48 11.75,22.543 0,14.078 -3.68,22.558 -11.75,22.558 m 0,-51.429 c -16.16,0 -19.27,17.21 -19.27,28.871 0,11.679 3.11,28.867 19.27,28.867 16.14,0 19.26,-17.188 19.26,-28.867 0,-11.661 -3.12,-28.871 -19.26,-28.871"
         style="fill:#221f20;fill-opacity:1;fill-rule:nonzero;stroke:none"
         id="path80"
         inkscape:connector-curvature="0" /><path
         d="m 62.0352,587.711 c 6.6992,-4.402 13.5898,-8.801 13.5898,-16.793 0,-6.801 -5.2891,-6.801 -6.6914,-6.801 -6,0 -50.7695,14.203 -55.4688,14.203 -3.1015,0 -3.1015,-3.312 -2.8984,-6.3 l -2.70312,0 c -0.69922,7.988 -1.5,12.988 -3,20.89 l 52.28122,-14.5 c 2.1914,-0.601 7.9883,-2.191 9.9883,-2.191 1.3008,0 1.5,1.39 1.5,1.492 0,2.398 -5,5.797 -8,7.797"
         style="fill:#221f20;fill-opacity:1;fill-rule:nonzero;stroke:none"
         id="path82"
         inkscape:connector-curvature="0" /><path
         d="M 1.47266,621.5 C 17.4648,613 27.0664,607.91 51.0547,607.91 c 16.4805,0 28.6797,5.688 44.3711,13.688 l 0,-5.899 c -15.5899,-10.39 -28.0899,-17.191 -46.7695,-17.191 -17.6016,0 -31.7813,6.101 -47.18364,16.89"
         style="fill:#221f20;fill-opacity:1;fill-rule:nonzero;stroke:none"
         id="path84"
         inkscape:connector-curvature="0" /><path
         d="M 62.0352,648.801 C 68.7344,644.398 75.625,640 75.625,632.008 c 0,-6.797 -5.2891,-6.797 -6.6914,-6.797 -6,0 -50.7695,14.187 -55.4688,14.187 -3.1015,0 -3.1015,-3.3 -2.8984,-6.289 l -2.70312,0 c -0.69922,7.989 -1.5,12.989 -3,20.891 L 57.1445,639.5 c 2.1914,-0.602 7.9883,-2.191 9.9883,-2.191 1.3008,0 1.5,1.39 1.5,1.492 0,2.398 -5,5.797 -8,7.797"
         style="fill:#221f20;fill-opacity:1;fill-rule:nonzero;stroke:none"
         id="path86"
         inkscape:connector-curvature="0" /><path
         d="m 24.2656,678.398 0,7.29 21.5899,0 0,21.589 7.3008,0 0,-21.589 21.5781,0 0,-7.29 -21.5781,0 0,-21.687 -7.3008,0 0,21.687"
         style="fill:#221f20;fill-opacity:1;fill-rule:nonzero;stroke:none"
         id="path88"
         inkscape:connector-curvature="0" /><path
         d="m 74.7344,747.09 0,-9.391 -49.8711,0 0,-16.398 -7,0 c -0.7969,11.398 -1.8985,16.097 -13.39064,18.898 l 0,6.891"
         style="fill:#221f20;fill-opacity:1;fill-rule:nonzero;stroke:none"
         id="path90"
         inkscape:connector-curvature="0" /><path
         d="m 95.4258,770.309 c -15.9922,8.5 -25.5899,13.589 -49.5703,13.589 -16.4922,0 -28.6914,-5.687 -44.38284,-13.687 l 0,5.898 c 15.60154,10.391 28.09374,17.192 46.78124,17.192 17.5899,0 31.7813,-6.102 47.1719,-16.891"
         style="fill:#221f20;fill-opacity:1;fill-rule:nonzero;stroke:none"
         id="path92"
         inkscape:connector-curvature="0" /><path
         d="M 24.5664,858.078 C 11.9727,855.379 9.67578,844.891 9.67578,837.988 9.67578,825 19.2656,814.5 38.1563,814.5 c 16.8867,0 29.8867,6 29.8867,23.789 0,6.301 -3,17.191 -19.6992,20.488 l 0,9.391 c 27.0898,-4 28.289,-25.98 28.289,-31.379 0,-16.289 -10.5976,-32.281 -38.1797,-32.281 -22.0898,0 -37.37888,12.59 -37.37888,33.48 0,18.492 11.49218,28.082 23.49218,29.481"
         style="fill:#221f20;fill-opacity:1;fill-rule:nonzero;stroke:none"
         id="path94"
         inkscape:connector-curvature="0" /><path
         d="m 90.8438,878.988 c 4.6914,-3.078 9.5312,-6.16 9.5312,-11.769 0,-4.758 -3.7109,-4.758 -4.6992,-4.758 -4.2031,0 -35.582,9.949 -38.8711,9.949 -2.1719,0 -2.1719,-2.32 -2.0313,-4.422 l -1.8906,0 c -0.4883,5.602 -1.0469,9.11 -2.0976,14.641 L 87.4141,872.48 c 1.539,-0.421 5.6015,-1.55 7,-1.55 0.9101,0 1.0507,0.98 1.0507,1.05 0,1.688 -3.5,4.071 -5.6015,5.469"
         style="fill:#221f20;fill-opacity:1;fill-rule:nonzero;stroke:none"
         id="path96"
         inkscape:connector-curvature="0" /><path
         d="m 76.6328,900.77 0,-6.692 -75.55858,24.582 0,6.598"
         style="fill:#221f20;fill-opacity:1;fill-rule:nonzero;stroke:none"
         id="path98"
         inkscape:connector-curvature="0" /><path
         d="m 29.6641,932.969 c -22.89066,0 -25.19144,16.691 -25.19144,24.289 0,12.191 7.90234,21.98 20.99214,21.98 12.5899,0 17.8907,-8.289 23.4883,-18.777 l 4,-7.301 c 5.293,-9.601 10.793,-11.699 13.4922,-12.09 l 0,38.168 8.2891,0 0,-48.07 c -14.5899,0.5 -22.3789,7.09 -27.8789,16.492 l -5.4024,9.289 c -4.289,7.5 -7.1992,12.899 -16.3867,12.899 -5.6016,0 -12.6914,-3.598 -12.6914,-13.899 0,-13.289 12.3906,-13.89 17.2891,-14.191"
         style="fill:#221f20;fill-opacity:1;fill-rule:nonzero;stroke:none"
         id="path100"
         inkscape:connector-curvature="0" /><path
         d="m 34.6641,1006.36 c 18.6914,-1.6 29.6797,-3.4 35.082,-4.59 3.7969,-0.81 6,-2.301 6.7891,-5.5 0.7109,-2.7 -1.4922,-5.7 -3.7891,-6.2 -3.4023,-0.8 -5,1.098 -6.6016,2.297 -2.1015,1.602 -4.3984,4.5 -8.5898,5 l -22.8906,2.893 0,-4.701 c 0,-2.789 1.6015,-5.489 3.1992,-6.59 l 3.1015,-2.102 0,-1.699 c -1.3984,0.5 -5.5,1.5 -9.6992,4.5 -2.4023,1.699 -5.1914,4.801 -5.1914,9.402 l 0,37.28 8.5899,0 0,-12.6 c 11.6914,-1.2 19.6914,-1.2 23.4922,-1.2 2.789,0 5.8867,1 7.289,2.5 1.1992,1.3 2.8985,4.2 0.3985,7.39 -1.8985,2.5 -4.6993,2.3 -6.1875,2.61 l 0,2.09 c 9.0898,-0.2 13.8867,-4.5 15.3867,-7.19 1.2031,-2 2.1015,-5.7 0.2031,-8.4 -1.2031,-1.6 -3.8008,-3.7 -7.4023,-4.9 -3.8985,-1.3 -11.8907,-1.19 -17.0899,-0.7 l -16.0898,1.7"
         style="fill:#221f20;fill-opacity:1;fill-rule:nonzero;stroke:none"
         id="path102"
         inkscape:connector-curvature="0" /><path
         d="m 1.47266,1096.66 c 15.99214,-8.5 25.59374,-13.59 49.58204,-13.59 16.4805,0 28.6797,5.69 44.3711,13.69 l 0,-5.9 c -15.5899,-10.39 -28.0899,-17.19 -46.7695,-17.19 -17.6016,0 -31.7813,6.1 -47.18364,16.89"
         style="fill:#221f20;fill-opacity:1;fill-rule:nonzero;stroke:none"
         id="path104"
         inkscape:connector-curvature="0" /><path
         d="m 24.7656,1114.86 33.2774,0 c 4.7031,0 8.8008,1.2 10.5898,5.2 1.3125,2.99 1.3125,5.49 0.1016,8.19 -1.0899,2.3 -3.5899,5.9 -6.7891,7.3 l -37.1797,0 0,8.59 38.3789,0 c 2.6016,0 5.4883,0.8 6.9883,2.3 1.6016,1.6 1.9024,3.3 0.8008,5.3 -1.5898,2.7 -4.5898,2.4 -6.2891,3.1 l 0,2 c 3.3985,-0.8 7.5899,-1.6 10.3907,-6.8 2.5976,-4.8 1,-8.9 -0.1016,-10.29 -2.5977,-3.5 -5.0977,-3.4 -8.3008,-4.1 1.3008,-0.9 3.5,-2.3 6.9024,-7 1.6992,-2.3 2.8984,-5.8 2.8984,-9.39 0,-4.7 -3.8008,-8 -4.8008,-9.4 l 2.3008,0 c 5.9023,0.3 7.6992,2 13.3008,3 6.5898,1.1 9.789,-1.9 9.789,-4.6 0,-2.7 -3.1992,-5.69 -9.789,-4.6 -5.6016,1 -7.3985,2.61 -13.3008,2.61 l -49.168,0"
         style="fill:#221f20;fill-opacity:1;fill-rule:nonzero;stroke:none"
         id="path106"
         inkscape:connector-curvature="0" /><path
         d="m 74.7344,1175.06 0,-9.69 -71.76174,0 0,9.69 34.78124,0 -34.78124,34.78 0,13.39 28.98044,-29.88 42.7813,30.68 0,-12.59 -35.9805,-25.09 10.7891,-11.29"
         style="fill:#221f20;fill-opacity:1;fill-rule:nonzero;stroke:none"
         id="path108"
         inkscape:connector-curvature="0" /><path
         d="m 18.1445,1227.55 c -16.03903,0 -17.648406,11.7 -17.648406,17.02 0,8.55 5.539066,15.41 14.707006,15.41 8.8203,0 12.5313,-5.81 16.461,-13.17 l 2.8007,-5.11 c 3.711,-6.72 7.5586,-8.2 9.4493,-8.48 l 0,26.76 5.8203,0 0,-33.69 c -10.2305,0.35 -15.6914,4.97 -19.5391,11.56 l -3.7812,6.51 c -3.0196,5.25 -5.0508,9.03 -11.4883,9.03 -3.9219,0 -8.89064,-2.51 -8.89064,-9.73 0,-9.32 8.67964,-9.74 12.10934,-9.95"
         style="fill:#221f20;fill-opacity:1;fill-rule:nonzero;stroke:none"
         id="path110"
         inkscape:connector-curvature="0" /><path
         d="m 95.4258,1266.89 c -15.9922,8.5 -25.5899,13.59 -49.5703,13.59 -16.4922,0 -28.6914,-5.69 -44.38284,-13.69 l 0,5.9 c 15.60154,10.39 28.09374,17.19 46.78124,17.19 17.5899,0 31.7813,-6.1 47.1719,-16.89"
         style="fill:#221f20;fill-opacity:1;fill-rule:nonzero;stroke:none"
         id="path112"
         inkscape:connector-curvature="0" /><path
         d="m 277.195,270.82 c -8.082,0 -11.75,-8.48 -11.75,-22.55 0,-14.071 3.668,-22.551 11.75,-22.551 8.078,0 11.75,8.48 11.75,22.551 0,14.07 -3.672,22.55 -11.75,22.55 m 0,-51.422 c -16.152,0 -19.269,17.2 -19.269,28.872 0,11.668 3.117,28.871 19.269,28.871 16.149,0 19.27,-17.203 19.27,-28.871 0,-11.672 -3.121,-28.872 -19.27,-28.872"
         style="fill:#221f20;fill-opacity:1;fill-rule:nonzero;stroke:none"
         id="path114"
         inkscape:connector-curvature="0" /><path
         d="m 150.234,447.199 -7.519,0 0,39.899 -13.11,0 0,5.59 c 9.118,0.64 12.868,1.523 15.11,10.722 l 5.519,0"
         style="fill:#221f20;fill-opacity:1;fill-rule:nonzero;stroke:none"
         id="path116"
         inkscape:connector-curvature="0" /><path
         d="m 188.234,497.09 c -8.078,0 -11.75,-8.481 -11.75,-22.551 0,-14.07 3.672,-22.551 11.75,-22.551 8.082,0 11.75,8.481 11.75,22.551 0,14.07 -3.668,22.551 -11.75,22.551 m 0,-51.41 c -16.148,0 -19.269,17.187 -19.269,28.859 0,11.68 3.121,28.871 19.269,28.871 16.149,0 19.27,-17.191 19.27,-28.871 0,-11.672 -3.121,-28.859 -19.27,-28.859"
         style="fill:#221f20;fill-opacity:1;fill-rule:nonzero;stroke:none"
         id="path118"
         inkscape:connector-curvature="0" /><path
         d="m 232.715,497.09 c -8.082,0 -11.75,-8.481 -11.75,-22.551 0,-14.07 3.668,-22.551 11.75,-22.551 8.078,0 11.75,8.481 11.75,22.551 0,14.07 -3.672,22.551 -11.75,22.551 m 0,-51.41 c -16.149,0 -19.27,17.187 -19.27,28.859 0,11.68 3.121,28.871 19.27,28.871 16.148,0 19.269,-17.191 19.269,-28.871 0,-11.672 -3.121,-28.859 -19.269,-28.859"
         style="fill:#221f20;fill-opacity:1;fill-rule:nonzero;stroke:none"
         id="path120"
         inkscape:connector-curvature="0" /><path
         d="m 277.195,497.09 c -8.082,0 -11.75,-8.481 -11.75,-22.551 0,-14.07 3.668,-22.551 11.75,-22.551 8.078,0 11.75,8.481 11.75,22.551 0,14.07 -3.672,22.551 -11.75,22.551 m 0,-51.41 c -16.152,0 -19.269,17.187 -19.269,28.859 0,11.68 3.117,28.871 19.269,28.871 16.149,0 19.27,-17.191 19.27,-28.871 0,-11.672 -3.121,-28.859 -19.27,-28.859"
         style="fill:#221f20;fill-opacity:1;fill-rule:nonzero;stroke:none"
         id="path122"
         inkscape:connector-curvature="0" /><path
         d="m 125.043,709.527 c 0,18.313 13.352,20.153 19.43,20.153 9.75,0 17.593,-6.321 17.593,-16.789 0,-10.071 -6.64,-14.313 -15.031,-18.793 l -5.84,-3.2 c -7.679,-4.238 -9.359,-8.64 -9.679,-10.789 l 30.55,0 0,-6.64 -38.461,0 c 0.399,11.679 5.668,17.91 13.188,22.308 l 7.441,4.321 c 6,3.429 10.309,5.75 10.309,13.113 0,4.469 -2.879,10.148 -11.109,10.148 -10.641,0 -11.11,-9.91 -11.36,-13.832"
         style="fill:#221f20;fill-opacity:1;fill-rule:nonzero;stroke:none"
         id="path124"
         inkscape:connector-curvature="0" /><path
         d="m 188.234,723.359 c -8.078,0 -11.75,-8.48 -11.75,-22.55 0,-14.071 3.672,-22.551 11.75,-22.551 8.082,0 11.75,8.48 11.75,22.551 0,14.07 -3.668,22.55 -11.75,22.55 m 0,-51.41 c -16.148,0 -19.269,17.192 -19.269,28.86 0,11.679 3.121,28.871 19.269,28.871 16.149,0 19.27,-17.192 19.27,-28.871 0,-11.668 -3.121,-28.86 -19.27,-28.86"
         style="fill:#221f20;fill-opacity:1;fill-rule:nonzero;stroke:none"
         id="path126"
         inkscape:connector-curvature="0" /><path
         d="m 232.715,723.359 c -8.082,0 -11.75,-8.48 -11.75,-22.55 0,-14.071 3.668,-22.551 11.75,-22.551 8.078,0 11.75,8.48 11.75,22.551 0,14.07 -3.672,22.55 -11.75,22.55 m 0,-51.41 c -16.149,0 -19.27,17.192 -19.27,28.86 0,11.679 3.121,28.871 19.27,28.871 16.148,0 19.269,-17.192 19.269,-28.871 0,-11.668 -3.121,-28.86 -19.269,-28.86"
         style="fill:#221f20;fill-opacity:1;fill-rule:nonzero;stroke:none"
         id="path128"
         inkscape:connector-curvature="0" /><path
         d="m 277.195,723.359 c -8.082,0 -11.75,-8.48 -11.75,-22.55 0,-14.071 3.668,-22.551 11.75,-22.551 8.078,0 11.75,8.48 11.75,22.551 0,14.07 -3.672,22.55 -11.75,22.55 m 0,-51.41 c -16.152,0 -19.269,17.192 -19.269,28.86 0,11.679 3.117,28.871 19.269,28.871 16.149,0 19.27,-17.192 19.27,-28.871 0,-11.668 -3.121,-28.86 -19.27,-28.86"
         style="fill:#221f20;fill-opacity:1;fill-rule:nonzero;stroke:none"
         id="path130"
         inkscape:connector-curvature="0" /><path
         d="m 139.434,931.73 c 1.199,-0.082 2.48,-0.16 3.679,-0.16 5.442,0 10.711,2.16 10.711,9.188 0,3.359 -2,8.883 -10.39,8.883 -10,0 -10.641,-8.153 -10.961,-12.082 l -6.868,0 c 0,8.242 3.36,18.402 18.149,18.402 10.871,0 17.351,-6.242 17.351,-14.801 0,-7.191 -4.16,-10.633 -7.199,-11.59 l 0,-0.16 c 5.438,-1.762 9.36,-5.601 9.36,-13.109 0,-9.192 -5.922,-18.071 -20.231,-18.071 -4.16,0 -7.68,1.04 -10.402,2.481 -6.227,3.277 -7.91,9.75 -8.387,16.227 l 7.27,0 c 0.238,-5.278 1.519,-12.387 12,-12.387 7.187,0 12.23,4.387 12.23,10.867 0,9.441 -8.32,10.312 -13.113,10.312 -1.039,0 -2.16,-0.082 -3.199,-0.082"
         style="fill:#221f20;fill-opacity:1;fill-rule:nonzero;stroke:none"
         id="path132"
         inkscape:connector-curvature="0" /><path
         d="m 188.234,949.641 c -8.078,0 -11.75,-8.481 -11.75,-22.551 0,-14.07 3.672,-22.539 11.75,-22.539 8.082,0 11.75,8.469 11.75,22.539 0,14.07 -3.668,22.551 -11.75,22.551 m 0,-51.411 c -16.148,0 -19.269,17.188 -19.269,28.86 0,11.68 3.121,28.871 19.269,28.871 16.149,0 19.27,-17.191 19.27,-28.871 0,-11.672 -3.121,-28.86 -19.27,-28.86"
         style="fill:#221f20;fill-opacity:1;fill-rule:nonzero;stroke:none"
         id="path134"
         inkscape:connector-curvature="0" /><path
         d="m 232.715,949.641 c -8.082,0 -11.75,-8.481 -11.75,-22.551 0,-14.07 3.668,-22.539 11.75,-22.539 8.078,0 11.75,8.469 11.75,22.539 0,14.07 -3.672,22.551 -11.75,22.551 m 0,-51.411 c -16.149,0 -19.27,17.188 -19.27,28.86 0,11.68 3.121,28.871 19.27,28.871 16.148,0 19.269,-17.191 19.269,-28.871 0,-11.672 -3.121,-28.86 -19.269,-28.86"
         style="fill:#221f20;fill-opacity:1;fill-rule:nonzero;stroke:none"
         id="path136"
         inkscape:connector-curvature="0" /><path
         d="m 277.195,949.641 c -8.082,0 -11.75,-8.481 -11.75,-22.551 0,-14.07 3.668,-22.539 11.75,-22.539 8.078,0 11.75,8.469 11.75,22.539 0,14.07 -3.672,22.551 -11.75,22.551 m 0,-51.411 c -16.152,0 -19.269,17.188 -19.269,28.86 0,11.68 3.117,28.871 19.269,28.871 16.149,0 19.27,-17.191 19.27,-28.871 0,-11.672 -3.121,-28.86 -19.27,-28.86"
         style="fill:#221f20;fill-opacity:1;fill-rule:nonzero;stroke:none"
         id="path138"
         inkscape:connector-curvature="0" /><path
         d="m 130.004,1145.77 18.07,0 0,25.5 -0.16,0 -17.91,-25.5 z m 25.101,-6.08 0,-13.67 -7.031,0 0,13.67 -24.551,0 0,6.88 25.75,35.66 5.832,0 0,-36.46 8.239,0 0,-6.08"
         style="fill:#221f20;fill-opacity:1;fill-rule:nonzero;stroke:none"
         id="path140"
         inkscape:connector-curvature="0" /><path
         d="m 188.234,1175.91 c -8.078,0 -11.75,-8.48 -11.75,-22.55 0,-14.07 3.672,-22.55 11.75,-22.55 8.082,0 11.75,8.48 11.75,22.55 0,14.07 -3.668,22.55 -11.75,22.55 m 0,-51.41 c -16.148,0 -19.269,17.19 -19.269,28.86 0,11.68 3.121,28.87 19.269,28.87 16.149,0 19.27,-17.19 19.27,-28.87 0,-11.67 -3.121,-28.86 -19.27,-28.86"
         style="fill:#221f20;fill-opacity:1;fill-rule:nonzero;stroke:none"
         id="path142"
         inkscape:connector-curvature="0" /><path
         d="m 232.715,1175.91 c -8.082,0 -11.75,-8.48 -11.75,-22.55 0,-14.07 3.668,-22.55 11.75,-22.55 8.078,0 11.75,8.48 11.75,22.55 0,14.07 -3.672,22.55 -11.75,22.55 m 0,-51.41 c -16.149,0 -19.27,17.19 -19.27,28.86 0,11.68 3.121,28.87 19.27,28.87 16.148,0 19.269,-17.19 19.269,-28.87 0,-11.67 -3.121,-28.86 -19.269,-28.86"
         style="fill:#221f20;fill-opacity:1;fill-rule:nonzero;stroke:none"
         id="path144"
         inkscape:connector-curvature="0" /><path
         d="m 277.195,1175.91 c -8.082,0 -11.75,-8.48 -11.75,-22.55 0,-14.07 3.668,-22.55 11.75,-22.55 8.078,0 11.75,8.48 11.75,22.55 0,14.07 -3.672,22.55 -11.75,22.55 m 0,-51.41 c -16.152,0 -19.269,17.19 -19.269,28.86 0,11.68 3.117,28.87 19.269,28.87 16.149,0 19.27,-17.19 19.27,-28.87 0,-11.67 -3.121,-28.86 -19.27,-28.86"
         style="fill:#221f20;fill-opacity:1;fill-rule:nonzero;stroke:none"
         id="path146"
         inkscape:connector-curvature="0" /><path
         d="m 133.285,1384.99 c 2.399,1.84 5.84,3.52 10.871,3.52 9.117,0 18.477,-6.4 18.477,-17.99 0,-6.24 -2.797,-19.75 -20.387,-19.75 -7.363,0 -16.801,2.96 -18.152,15.51 l 7.269,0 c 0.723,-6.55 5.602,-9.43 11.922,-9.43 7.27,0 11.828,5.84 11.828,12.87 0,8.08 -5.519,12.47 -12.468,12.47 -4.079,0 -7.762,-1.92 -10.399,-5.35 l -6.07,0.32 4.23,30.14 29.11,0 0,-6.88 -23.832,0"
         style="fill:#221f20;fill-opacity:1;fill-rule:nonzero;stroke:none"
         id="path148"
         inkscape:connector-curvature="0" /><path
         d="m 188.234,1402.18 c -8.078,0 -11.75,-8.48 -11.75,-22.55 0,-14.07 3.672,-22.54 11.75,-22.54 8.082,0 11.75,8.47 11.75,22.54 0,14.07 -3.668,22.55 -11.75,22.55 m 0,-51.41 c -16.148,0 -19.269,17.19 -19.269,28.86 0,11.68 3.121,28.87 19.269,28.87 16.149,0 19.27,-17.19 19.27,-28.87 0,-11.67 -3.121,-28.86 -19.27,-28.86"
         style="fill:#221f20;fill-opacity:1;fill-rule:nonzero;stroke:none"
         id="path150"
         inkscape:connector-curvature="0" /><path
         d="m 232.715,1402.18 c -8.082,0 -11.75,-8.48 -11.75,-22.55 0,-14.07 3.668,-22.54 11.75,-22.54 8.078,0 11.75,8.47 11.75,22.54 0,14.07 -3.672,22.55 -11.75,22.55 m 0,-51.41 c -16.149,0 -19.27,17.19 -19.27,28.86 0,11.68 3.121,28.87 19.27,28.87 16.148,0 19.269,-17.19 19.269,-28.87 0,-11.67 -3.121,-28.86 -19.269,-28.86"
         style="fill:#221f20;fill-opacity:1;fill-rule:nonzero;stroke:none"
         id="path152"
         inkscape:connector-curvature="0" /><path
         d="m 277.195,1402.18 c -8.082,0 -11.75,-8.48 -11.75,-22.55 0,-14.07 3.668,-22.54 11.75,-22.54 8.078,0 11.75,8.47 11.75,22.54 0,14.07 -3.672,22.55 -11.75,22.55 m 0,-51.41 c -16.152,0 -19.269,17.19 -19.269,28.86 0,11.68 3.117,28.87 19.269,28.87 16.149,0 19.27,-17.19 19.27,-28.87 0,-11.67 -3.121,-28.86 -19.27,-28.86"
         style="fill:#221f20;fill-opacity:1;fill-rule:nonzero;stroke:none"
         id="path154"
         inkscape:connector-curvature="0" /><path
         d="m 144.633,1583.36 c 6.722,0 11.043,5.28 11.043,12.88 0,4.95 -2.641,11.83 -11.36,11.83 -7.75,0 -11.511,-5.6 -11.511,-12.23 0,-6 3.601,-12.48 11.828,-12.48 m 10.23,36.45 c -0.867,4.96 -3.59,8.64 -9.668,8.64 -11.031,0 -13.351,-14.88 -13.351,-20.79 l 0.16,-0.16 c 1.762,3.04 5.68,6.88 13.351,6.88 6.879,0 17.59,-4.4 17.59,-17.84 0,-5.75 -1.519,-9.91 -5.359,-14.07 -2.953,-3.28 -6.313,-5.43 -14.231,-5.43 -4.32,0 -10.472,1.92 -14.472,8.15 -3.36,5.28 -4.317,12.15 -4.317,19.51 0,12.31 4,30.07 20.789,30.07 6.481,0 15.668,-3.52 16.391,-14.96"
         style="fill:#221f20;fill-opacity:1;fill-rule:nonzero;stroke:none"
         id="path156"
         inkscape:connector-curvature="0" /><path
         d="m 188.234,1628.45 c -8.078,0 -11.75,-8.48 -11.75,-22.55 0,-14.07 3.672,-22.55 11.75,-22.55 8.082,0 11.75,8.48 11.75,22.55 0,14.07 -3.668,22.55 -11.75,22.55 m 0,-51.41 c -16.148,0 -19.269,17.19 -19.269,28.86 0,11.68 3.121,28.87 19.269,28.87 16.149,0 19.27,-17.19 19.27,-28.87 0,-11.67 -3.121,-28.86 -19.27,-28.86"
         style="fill:#221f20;fill-opacity:1;fill-rule:nonzero;stroke:none"
         id="path158"
         inkscape:connector-curvature="0" /><path
         d="m 232.715,1628.45 c -8.082,0 -11.75,-8.48 -11.75,-22.55 0,-14.07 3.668,-22.55 11.75,-22.55 8.078,0 11.75,8.48 11.75,22.55 0,14.07 -3.672,22.55 -11.75,22.55 m 0,-51.41 c -16.149,0 -19.27,17.19 -19.27,28.86 0,11.68 3.121,28.87 19.27,28.87 16.148,0 19.269,-17.19 19.269,-28.87 0,-11.67 -3.121,-28.86 -19.269,-28.86"
         style="fill:#221f20;fill-opacity:1;fill-rule:nonzero;stroke:none"
         id="path160"
         inkscape:connector-curvature="0" /><path
         d="m 277.195,1628.45 c -8.082,0 -11.75,-8.48 -11.75,-22.55 0,-14.07 3.668,-22.55 11.75,-22.55 8.078,0 11.75,8.48 11.75,22.55 0,14.07 -3.672,22.55 -11.75,22.55 m 0,-51.41 c -16.152,0 -19.269,17.19 -19.269,28.86 0,11.68 3.117,28.87 19.269,28.87 16.149,0 19.27,-17.19 19.27,-28.87 0,-11.67 -3.121,-28.86 -19.27,-28.86"
         style="fill:#221f20;fill-opacity:1;fill-rule:nonzero;stroke:none"
         id="path162"
         inkscape:connector-curvature="0" /><path
         d="m 339.613,231.758 2126.01,0 0,1378.25 -2126.01,0 0,-1378.25 z"
         style="fill:none;stroke:#221f20;stroke-width:7.5;stroke-linecap:butt;stroke-linejoin:miter;stroke-miterlimit:2.5;stroke-dasharray:none;stroke-opacity:1"
         id="path164"
         inkscape:connector-curvature="0" /><path
         d="m 2118.75,1213.89 58.27,0 0,-8.6 -24.29,0 0,-63.16 -9.69,0 0,63.16 -24.29,0"
         style="fill:#221f20;fill-opacity:1;fill-rule:nonzero;stroke:none"
         id="path166"
         inkscape:connector-curvature="0" /><path
         d="m 2187.36,1213.89 58.27,0 0,-8.6 -24.29,0 0,-63.16 -9.7,0 0,63.16 -24.28,0"
         style="fill:#221f20;fill-opacity:1;fill-rule:nonzero;stroke:none"
         id="path168"
         inkscape:connector-curvature="0" /></g></g></svg>